<svg width="163" height="58" viewBox="0 0 163 58" fill="none" xmlns="http://www.w3.org/2000/svg">
<g clip-path="url(#clip0_663_9644)">
<rect width="163" height="58" rx="8" fill="white"/>
<path d="M156.576 0H6C2.68629 0 0 2.68629 0 6V52C0 55.3137 2.68629 58 6 58H156.576C159.89 58 162.576 55.3137 162.576 52V6C162.576 2.68629 159.89 0 156.576 0Z" fill="#088375"/>
<path d="M156.576 0H6C2.68629 0 0 2.68629 0 6V52C0 55.3137 2.68629 58 6 58H156.576C159.89 58 162.576 55.3137 162.576 52V6C162.576 2.68629 159.89 0 156.576 0Z" fill="white"/>
<path d="M58.4147 17.6484C58.4147 18.55 58.1382 19.2721 57.5935 19.8107C56.9673 20.4491 56.1516 20.7704 55.1521 20.7704C54.1968 20.7704 53.3812 20.4437 52.7121 19.7999C52.0416 19.1466 51.707 18.3449 51.707 17.3852C51.707 16.4255 52.0416 15.6238 52.7121 14.9759C53.3812 14.3266 54.1968 14 55.1521 14C55.6277 14 56.0811 14.0958 56.5138 14.274C56.9452 14.4535 57.2963 14.6965 57.5507 14.9961L56.9728 15.5657C56.5291 15.0542 55.9249 14.8018 55.1521 14.8018C54.4554 14.8018 53.8512 15.0393 53.3383 15.5185C52.831 15.999 52.5766 16.6212 52.5766 17.3852C52.5766 18.1491 52.831 18.7768 53.3383 19.2573C53.8512 19.7311 54.4554 19.974 55.1521 19.974C55.8917 19.974 56.5138 19.7311 57.0046 19.2519C57.3281 18.9347 57.512 18.4974 57.5604 17.9386H55.1521V17.1584H58.365C58.4037 17.3271 58.4147 17.4905 58.4147 17.6484Z" fill="#004245" stroke="#004245" stroke-width="0.4" stroke-miterlimit="10"/>
<path d="M63.5118 14.9434H60.4939V16.9951H63.2146V17.7752H60.4939V19.8269H63.5118V20.6219H59.6396V14.1484H63.5118V14.9434Z" fill="#004245" stroke="#004245" stroke-width="0.4" stroke-miterlimit="10"/>
<path d="M67.1087 20.6219H66.2544V14.9434H64.4033V14.1484H68.9612V14.9434H67.1087V20.6219Z" fill="#004245" stroke="#004245" stroke-width="0.4" stroke-miterlimit="10"/>
<path d="M72.2598 20.6219V14.1484H73.1127V20.6219H72.2598Z" fill="#004245" stroke="#004245" stroke-width="0.4" stroke-miterlimit="10"/>
<path d="M76.894 20.6219H76.0465V14.9434H74.1885V14.1484H78.752V14.9434H76.894V20.6219Z" fill="#004245" stroke="#004245" stroke-width="0.4" stroke-miterlimit="10"/>
<path d="M87.3807 19.7891C86.7268 20.4437 85.9167 20.7704 84.9504 20.7704C83.9785 20.7704 83.1684 20.4437 82.5145 19.7891C81.862 19.1358 81.5371 18.3341 81.5371 17.3852C81.5371 16.4363 81.862 15.6346 82.5145 14.9813C83.1684 14.3266 83.9785 14 84.9504 14C85.9112 14 86.7213 14.3266 87.3752 14.9867C88.0333 15.6454 88.3581 16.4417 88.3581 17.3852C88.3581 18.3341 88.0333 19.1358 87.3807 19.7891ZM83.1463 19.2465C83.6384 19.7311 84.237 19.974 84.9504 19.974C85.6582 19.974 86.2623 19.7311 86.749 19.2465C87.2397 18.7619 87.4886 18.1397 87.4886 17.3852C87.4886 16.6307 87.2397 16.0084 86.749 15.5239C86.2623 15.0393 85.6582 14.7964 84.9504 14.7964C84.237 14.7964 83.6384 15.0393 83.1463 15.5239C82.6555 16.0084 82.4066 16.6307 82.4066 17.3852C82.4066 18.1397 82.6555 18.7619 83.1463 19.2465Z" fill="#004245" stroke="#004245" stroke-width="0.4" stroke-miterlimit="10"/>
<path d="M89.5566 20.6219V14.1484H90.5935L93.8174 19.183H93.8547L93.8174 17.9385V14.1484H94.6704V20.6219H93.78L90.4041 15.3389H90.3667L90.4041 16.5888V20.6219H89.5566Z" fill="#004245" stroke="#004245" stroke-width="0.4" stroke-miterlimit="10"/>
<path d="M81.3275 30.0759C78.7299 30.0759 76.6078 32.006 76.6078 34.6691C76.6078 37.3106 78.7299 39.261 81.3275 39.261C83.9307 39.261 86.0528 37.3106 86.0528 34.6691C86.0528 32.006 83.9307 30.0759 81.3275 30.0759ZM81.3275 37.4523C79.9022 37.4523 78.676 36.3037 78.676 34.6691C78.676 33.013 79.9022 31.8846 81.3275 31.8846C82.7528 31.8846 83.9846 33.013 83.9846 34.6691C83.9846 36.3037 82.7528 37.4523 81.3275 37.4523ZM71.0296 30.0759C68.4264 30.0759 66.3098 32.006 66.3098 34.6691C66.3098 37.3106 68.4264 39.261 71.0296 39.261C73.6313 39.261 75.7493 37.3106 75.7493 34.6691C75.7493 32.006 73.6313 30.0759 71.0296 30.0759ZM71.0296 37.4523C69.6029 37.4523 68.3725 36.3037 68.3725 34.6691C68.3725 33.013 69.6029 31.8846 71.0296 31.8846C72.4549 31.8846 73.6811 33.013 73.6811 34.6691C73.6811 36.3037 72.4549 37.4523 71.0296 37.4523ZM58.7754 31.4837V33.4354H63.5491C63.4094 34.526 63.0362 35.3278 62.4638 35.8866C61.7671 36.5615 60.6818 37.3106 58.7754 37.3106C55.8377 37.3106 53.5373 34.9958 53.5373 32.1275C53.5373 29.2593 55.8377 26.9445 58.7754 26.9445C60.3639 26.9445 61.5196 27.5505 62.3726 28.3361L63.7813 26.9607C62.5883 25.8485 61.0012 24.9941 58.7754 24.9941C54.7469 24.9941 51.3613 28.1943 51.3613 32.1275C51.3613 36.0607 54.7469 39.261 58.7754 39.261C60.9528 39.261 62.5882 38.5645 63.8739 37.2579C65.1914 35.9716 65.602 34.163 65.602 32.7025C65.602 32.249 65.5633 31.8319 65.4942 31.4837H58.7754ZM108.884 32.9968C108.495 31.9696 107.297 30.0759 104.855 30.0759C102.436 30.0759 100.422 31.9372 100.422 34.6691C100.422 37.2417 102.415 39.261 105.088 39.261C107.248 39.261 108.495 37.9747 109.008 37.2255L107.405 36.1822C106.87 36.9461 106.141 37.4523 105.088 37.4523C104.041 37.4523 103.29 36.9839 102.809 36.0607L109.101 33.5191L108.884 32.9968ZM102.469 34.526C102.415 32.7552 103.878 31.8481 104.926 31.8481C105.747 31.8481 106.444 32.249 106.676 32.8226L102.469 34.526ZM97.3558 38.9816H99.4239V25.484H97.3558V38.9816ZM93.9687 31.099H93.8996C93.4351 30.5618 92.549 30.0759 91.4264 30.0759C89.0707 30.0759 86.9168 32.0951 86.9168 34.684C86.9168 37.2579 89.0707 39.261 91.4264 39.261C92.549 39.261 93.4351 38.771 93.8996 38.2176H93.9687V38.8763C93.9687 40.6323 93.0079 41.5758 91.4582 41.5758C90.1946 41.5758 89.4108 40.685 89.0873 39.9359L87.2887 40.6688C87.8071 41.8862 89.1799 43.3845 91.4582 43.3845C93.883 43.3845 95.9291 41.9915 95.9291 38.6023V30.3553H93.9687V31.099ZM91.6034 37.4523C90.178 37.4523 88.985 36.2875 88.985 34.684C88.985 33.0656 90.178 31.8846 91.6034 31.8846C93.0079 31.8846 94.1153 33.0656 94.1153 34.684C94.1153 36.2875 93.0079 37.4523 91.6034 37.4523ZM118.567 25.484H113.62V38.9816H115.683V33.8674H118.567C120.857 33.8674 123.104 32.249 123.104 29.675C123.104 27.1024 120.852 25.484 118.567 25.484ZM118.621 31.9898H115.683V27.3615H118.621C120.161 27.3615 121.04 28.6101 121.04 29.675C121.04 30.7197 120.161 31.9898 118.621 31.9898ZM131.371 30.0503C129.881 30.0503 128.331 30.6927 127.694 32.1167L129.524 32.8658C129.918 32.1167 130.642 31.8738 131.408 31.8738C132.478 31.8738 133.564 32.5014 133.58 33.6096V33.7513C133.207 33.5407 132.408 33.2289 131.425 33.2289C129.454 33.2289 127.445 34.2885 127.445 36.2659C127.445 38.0745 129.06 39.2394 130.875 39.2394C132.263 39.2394 133.029 38.6279 133.51 37.9166H133.58V38.96H135.572V33.7823C135.572 31.3892 133.742 30.0503 131.371 30.0503ZM131.122 37.4469C130.448 37.4469 129.507 37.1203 129.507 36.3037C129.507 35.259 130.68 34.8581 131.695 34.8581C132.603 34.8581 133.029 35.0538 133.58 35.3116C133.418 36.5615 132.317 37.4469 131.122 37.4469ZM142.83 30.3458L140.459 36.197H140.389L137.938 30.3458H135.713L139.396 38.5227L137.295 43.0727H139.45L145.125 30.3458H142.83ZM124.238 38.9816H126.306V25.484H124.238V38.9816Z" fill="#004245"/>
<path d="M17.5129 14.7276C17.188 15.0597 17 15.5766 17 16.2461V40.126C17 40.7955 17.188 41.3124 17.5129 41.6445L17.5931 41.7174L31.2988 28.3413V28.0254L17.5931 14.6494L17.5129 14.7276Z" fill="url(#paint0_linear_663_9644)"/>
<path d="M35.8623 32.8022L31.2988 28.3413V28.0254L35.8678 23.5645L35.9701 23.6225L41.3811 26.6284C42.9253 27.4815 42.9253 28.8852 41.3811 29.7437L35.9701 32.7442L35.8623 32.8022Z" fill="url(#paint1_linear_663_9644)"/>
<path d="M35.97 32.7444L31.2986 28.1836L17.5127 41.6447C18.0256 42.1711 18.862 42.2346 19.8131 41.7082L35.97 32.7444Z" fill="url(#paint2_linear_663_9644)"/>
<path d="M35.97 23.6223L19.8131 14.6586C18.862 14.1376 18.0256 14.201 17.5127 14.7274L31.2986 28.1831L35.97 23.6223Z" fill="url(#paint3_linear_663_9644)"/>
</g>
<defs>
<linearGradient id="paint0_linear_663_9644" x1="30.0819" y1="40.3747" x2="11.9654" y2="21.8192" gradientUnits="userSpaceOnUse">
<stop stop-color="#00A0FF"/>
<stop offset="0.0066" stop-color="#00A1FF"/>
<stop offset="0.2601" stop-color="#00BEFF"/>
<stop offset="0.5122" stop-color="#00D2FF"/>
<stop offset="0.7604" stop-color="#00DFFF"/>
<stop offset="1" stop-color="#00E3FF"/>
</linearGradient>
<linearGradient id="paint1_linear_663_9644" x1="43.3919" y1="28.1818" x2="16.6309" y2="28.1818" gradientUnits="userSpaceOnUse">
<stop stop-color="#FFE000"/>
<stop offset="0.4087" stop-color="#FFBD00"/>
<stop offset="0.7754" stop-color="#FFA500"/>
<stop offset="1" stop-color="#FF9C00"/>
</linearGradient>
<linearGradient id="paint2_linear_663_9644" x1="33.4298" y1="25.7043" x2="8.86235" y2="0.541488" gradientUnits="userSpaceOnUse">
<stop stop-color="#FF3A44"/>
<stop offset="1" stop-color="#C31162"/>
</linearGradient>
<linearGradient id="paint3_linear_663_9644" x1="14.0425" y1="49.589" x2="25.013" y2="38.3528" gradientUnits="userSpaceOnUse">
<stop stop-color="#32A071"/>
<stop offset="0.0685" stop-color="#2DA771"/>
<stop offset="0.4762" stop-color="#15CF74"/>
<stop offset="0.8009" stop-color="#06E775"/>
<stop offset="1" stop-color="#00F076"/>
</linearGradient>
<clipPath id="clip0_663_9644">
<rect width="163" height="58" rx="8" fill="white"/>
</clipPath>
</defs>
</svg>
