<svg width="157" height="58" viewBox="0 0 157 58" fill="none" xmlns="http://www.w3.org/2000/svg">
<g clip-path="url(#clip0_663_9659)">
<rect width="157" height="58" rx="8" fill="white"/>
<path d="M150.424 0H6C2.68629 0 0 2.68629 0 6V52C0 55.3137 2.68629 58 6 58H150.424C153.738 58 156.424 55.3137 156.424 52V6C156.424 2.68629 153.738 0 150.424 0Z" fill="#088375"/>
<path d="M150.424 0H6C2.68629 0 0 2.68629 0 6V52C0 55.3137 2.68629 58 6 58H150.424C153.738 58 156.424 55.3137 156.424 52V6C156.424 2.68629 153.738 0 150.424 0Z" fill="white"/>
<path d="M39.2696 27.9402C39.239 24.6286 42.0507 23.0174 42.1793 22.9424C40.5869 20.6789 38.1188 20.3696 37.2515 20.3449C35.1786 20.1322 33.1678 21.5543 32.1119 21.5543C31.0348 21.5543 29.4088 20.3655 27.6562 20.4004C25.401 20.4343 23.2912 21.7074 22.134 23.6843C19.746 27.7152 21.527 33.6387 23.8149 36.8969C24.9594 38.4926 26.2967 40.2743 28.0472 40.2117C29.7597 40.1428 30.3994 39.1472 32.466 39.1472C34.5136 39.1472 35.1143 40.2117 36.8995 40.1716C38.7374 40.1428 39.8945 38.5687 40.999 36.9586C42.3215 35.1296 42.8527 33.3284 42.8738 33.2359C42.8306 33.2216 39.3044 31.9094 39.2696 27.9402Z" fill="#004245"/>
<path d="M35.8975 18.2015C36.8186 17.0784 37.4488 15.5505 37.2738 14C35.9407 14.0575 34.2735 14.8991 33.3135 15.9975C32.4641 16.9654 31.7053 18.5518 31.9013 20.0438C33.3988 20.1527 34.9364 19.307 35.8975 18.2015Z" fill="#004245"/>
<path d="M64.0529 39.9836H61.6596L60.3486 35.9671H55.7918L54.5429 39.9836H52.2129L56.7276 26.3096H59.5161L64.0529 39.9836ZM59.9534 34.282L58.7678 30.7114C58.6424 30.3466 58.4074 29.4876 58.0607 28.1355H58.0185C57.8805 28.717 57.6581 29.576 57.3525 30.7114L56.188 34.282H59.9534Z" fill="#004245"/>
<path d="M75.6634 34.9312C75.6634 36.608 75.1987 37.9335 74.2692 38.9066C73.4366 39.7728 72.4028 40.2053 71.1687 40.2053C69.8367 40.2053 68.8798 39.7388 68.297 38.8059H68.2549V43.9999H66.0081V33.3683C66.0081 32.3141 65.9796 31.2322 65.9248 30.1225H67.9008L68.0262 31.6853H68.0683C68.8176 30.5078 69.9547 29.92 71.4807 29.92C72.6736 29.92 73.6695 30.3793 74.4662 31.2989C75.265 32.2196 75.6634 33.43 75.6634 34.9312ZM73.3744 35.0113C73.3744 34.0516 73.1531 33.2605 72.7084 32.6378C72.2226 31.9884 71.5703 31.6637 70.7525 31.6637C70.1981 31.6637 69.6944 31.8446 69.2444 32.2011C68.7934 32.5607 68.4983 33.0303 68.3602 33.6119C68.2907 33.8831 68.2559 34.1051 68.2559 34.2797V35.9237C68.2559 36.6409 68.4814 37.2461 68.9325 37.7404C69.3835 38.2346 69.9695 38.4812 70.6903 38.4812C71.5365 38.4812 72.1952 38.1627 72.6663 37.5277C73.1384 36.8916 73.3744 36.0532 73.3744 35.0113Z" fill="#004245"/>
<path d="M87.2941 34.9312C87.2941 36.608 86.8294 37.9335 85.8988 38.9066C85.0674 39.7728 84.0335 40.2053 82.7995 40.2053C81.4674 40.2053 80.5105 39.7388 79.9288 38.8059H79.8866V43.9999H77.6398V33.3683C77.6398 32.3141 77.6114 31.2322 77.5566 30.1225H79.5325L79.658 31.6853H79.7001C80.4483 30.5078 81.5854 29.92 83.1125 29.92C84.3044 29.92 85.3003 30.3793 86.0991 31.2989C86.8947 32.2196 87.2941 33.43 87.2941 34.9312ZM85.0052 35.0113C85.0052 34.0516 84.7828 33.2605 84.3381 32.6378C83.8523 31.9884 83.202 31.6637 82.3832 31.6637C81.8278 31.6637 81.3251 31.8446 80.8741 32.2011C80.4231 32.5607 80.129 33.0303 79.991 33.6119C79.9225 33.8831 79.8866 34.1051 79.8866 34.2797V35.9237C79.8866 36.6409 80.1122 37.2461 80.5611 37.7404C81.0121 38.2336 81.5981 38.4812 82.321 38.4812C83.1673 38.4812 83.8259 38.1627 84.297 37.5277C84.7691 36.8916 85.0052 36.0532 85.0052 35.0113Z" fill="#004245"/>
<path d="M100.299 36.1481C100.299 37.3112 99.885 38.2575 99.0535 38.9881C98.1398 39.7865 96.8678 40.1851 95.2333 40.1851C93.7242 40.1851 92.5144 39.9015 91.5986 39.3333L92.1192 37.5075C93.1056 38.089 94.1879 38.3808 95.3671 38.3808C96.2134 38.3808 96.872 38.1938 97.3452 37.8219C97.8163 37.4499 98.0513 36.9505 98.0513 36.3279C98.0513 35.773 97.8574 35.3055 97.4685 34.9264C97.0818 34.5472 96.4357 34.1948 95.5337 33.8691C93.0782 32.9762 91.8515 31.6682 91.8515 29.9481C91.8515 28.824 92.2815 27.9024 93.1425 27.1852C94.0003 26.467 95.1448 26.1084 96.5759 26.1084C97.8521 26.1084 98.9123 26.3252 99.7585 26.7577L99.1968 28.5435C98.4064 28.1243 97.5128 27.9147 96.5127 27.9147C95.7223 27.9147 95.1047 28.1048 94.6621 28.4829C94.288 28.821 94.1004 29.233 94.1004 29.721C94.1004 30.2615 94.3144 30.7085 94.7443 31.0599C95.1184 31.3846 95.7982 31.736 96.7846 32.1151C97.9912 32.5888 98.8775 33.1426 99.4476 33.7776C100.015 34.4106 100.299 35.2028 100.299 36.1481Z" fill="#004245"/>
<path d="M107.728 31.7667H105.251V36.5539C105.251 37.7714 105.687 38.3797 106.562 38.3797C106.963 38.3797 107.297 38.3458 107.56 38.278L107.622 39.9415C107.18 40.1028 106.597 40.184 105.875 40.184C104.988 40.184 104.294 39.92 103.794 39.3928C103.295 38.8647 103.044 37.979 103.044 36.7347V31.7647H101.569V30.1207H103.044V28.3154L105.251 27.666V30.1207H107.728V31.7667Z" fill="#004245"/>
<path d="M118.901 34.9711C118.901 36.4867 118.457 37.731 117.569 38.704C116.639 39.7058 115.404 40.2052 113.864 40.2052C112.38 40.2052 111.199 39.7254 110.318 38.7657C109.437 37.806 108.996 36.5946 108.996 35.1345C108.996 33.6066 109.449 32.3551 110.359 31.3821C111.266 30.408 112.491 29.9209 114.031 29.9209C115.514 29.9209 116.708 30.4008 117.609 31.3615C118.471 32.2934 118.901 33.4966 118.901 34.9711ZM116.57 35.042C116.57 34.1327 116.371 33.3528 115.968 32.7024C115.496 31.9153 114.823 31.5228 113.95 31.5228C113.047 31.5228 112.361 31.9164 111.89 32.7024C111.487 33.3538 111.287 34.146 111.287 35.0831C111.287 35.9924 111.487 36.7723 111.89 37.4217C112.376 38.2088 113.055 38.6013 113.93 38.6013C114.788 38.6013 115.462 38.2005 115.948 37.4012C116.362 36.7384 116.57 35.9503 116.57 35.042Z" fill="#004245"/>
<path d="M126.205 32.049C125.982 32.009 125.745 31.9884 125.496 31.9884C124.706 31.9884 124.095 32.2792 123.665 32.8618C123.291 33.3755 123.103 34.0249 123.103 34.8089V39.9824H120.857L120.878 33.2276C120.878 32.0912 120.85 31.0565 120.794 30.1235H122.751L122.833 32.01H122.896C123.133 31.3616 123.507 30.8397 124.019 30.4482C124.52 30.0957 125.06 29.92 125.643 29.92C125.851 29.92 126.038 29.9344 126.205 29.9601V32.049Z" fill="#004245"/>
<path d="M136.253 34.5858C136.253 34.9783 136.227 35.3091 136.171 35.5794H129.43C129.457 36.5535 129.782 37.2984 130.408 37.8121C130.976 38.2714 131.711 38.5016 132.613 38.5016C133.611 38.5016 134.522 38.3464 135.34 38.0351L135.692 39.5558C134.736 39.9627 133.606 40.1651 132.302 40.1651C130.734 40.1651 129.503 39.7151 128.607 38.816C127.714 37.9169 127.266 36.7096 127.266 35.1951C127.266 33.7083 127.682 32.4702 128.516 31.4827C129.388 30.4285 130.568 29.9014 132.051 29.9014C133.509 29.9014 134.612 30.4285 135.362 31.4827C135.955 32.3201 136.253 33.3559 136.253 34.5858ZM134.111 34.0176C134.125 33.3682 133.979 32.8072 133.674 32.3335C133.285 31.7242 132.688 31.4201 131.884 31.4201C131.149 31.4201 130.552 31.717 130.095 32.313C129.721 32.7866 129.499 33.3548 129.43 34.0166H134.111V34.0176Z" fill="#004245"/>
<path d="M59.2102 17.8963C59.2102 19.1057 58.8382 20.0161 58.0953 20.6274C57.4071 21.1915 56.4291 21.4741 55.1624 21.4741C54.5343 21.4741 53.9969 21.4474 53.5469 21.394V14.7861C54.1339 14.6936 54.7662 14.6464 55.4491 14.6464C56.6557 14.6464 57.5652 14.9022 58.1785 15.4139C58.8656 15.9924 59.2102 16.8195 59.2102 17.8963ZM58.0457 17.9261C58.0457 17.1422 57.8329 16.5411 57.4071 16.1219C56.9814 15.7037 56.3596 15.4941 55.5407 15.4941C55.193 15.4941 54.8968 15.5167 54.6513 15.5639V20.5874C54.7872 20.6079 55.0359 20.6172 55.3974 20.6172C56.2426 20.6172 56.8949 20.388 57.3544 19.9298C57.8139 19.4715 58.0457 18.8036 58.0457 17.9261Z" fill="#004245" stroke="#004245" stroke-width="0.2"/>
<path d="M65.3852 18.9531C65.3852 19.698 65.167 20.3083 64.7307 20.7871C64.2734 21.2793 63.6674 21.5249 62.9107 21.5249C62.1815 21.5249 61.6008 21.2896 61.1677 20.8169C60.7356 20.3453 60.5195 19.7504 60.5195 19.0332C60.5195 18.2831 60.7419 17.6677 61.1887 17.1899C61.6356 16.7121 62.2363 16.4727 62.9929 16.4727C63.7222 16.4727 64.3081 16.708 64.7518 17.1796C65.1733 17.6379 65.3852 18.2297 65.3852 18.9531ZM64.2396 18.988C64.2396 18.541 64.1406 18.1578 63.9435 17.8382C63.7117 17.4519 63.3818 17.2587 62.9529 17.2587C62.5092 17.2587 62.172 17.4519 61.9401 17.8382C61.742 18.1578 61.644 18.5472 61.644 19.0075C61.644 19.4545 61.7431 19.8377 61.9401 20.1573C62.1794 20.5436 62.5124 20.7368 62.9423 20.7368C63.3639 20.7368 63.6948 20.5405 63.933 20.147C64.1374 19.8213 64.2396 19.435 64.2396 18.988Z" fill="#004245" stroke="#004245" stroke-width="0.2"/>
<path d="M73.6636 16.5703L72.1091 21.4139H71.0974L70.4535 19.3106C70.2902 18.7856 70.1574 18.2636 70.0541 17.7458H70.0341C69.9382 18.278 69.8054 18.799 69.6347 19.3106L68.9508 21.4139H67.9275L66.4658 16.5703H67.6008L68.1625 18.8729C68.2984 19.4175 68.4101 19.9364 68.4997 20.4275H68.5197C68.6019 20.0227 68.7379 19.5069 68.9297 18.8832L69.6347 16.5713H70.5347L71.2102 18.8339C71.3736 19.3857 71.5063 19.9169 71.6086 20.4286H71.6391C71.7139 19.9302 71.8267 19.399 71.9764 18.8339L72.5792 16.5713H73.6636V16.5703Z" fill="#004245" stroke="#004245" stroke-width="0.2"/>
<path d="M79.3897 21.4141H78.2853V18.6398C78.2853 17.7849 77.9523 17.3575 77.284 17.3575C76.9563 17.3575 76.6919 17.4746 76.4864 17.7099C76.283 17.9452 76.1796 18.2227 76.1796 18.5402V21.4131H75.0753V17.9545C75.0753 17.5291 75.0616 17.0677 75.0352 16.5684H76.0058L76.0574 17.3257H76.088C76.2166 17.0904 76.4084 16.8962 76.6603 16.741C76.9596 16.5602 77.2947 16.4688 77.6614 16.4688C78.1251 16.4688 78.5108 16.6146 78.8175 16.9075C79.199 17.2661 79.3897 17.8014 79.3897 18.5124V21.4141Z" fill="#004245" stroke="#004245" stroke-width="0.2"/>
<path d="M82.4354 21.4138H81.332V14.3477H82.4354V21.4138Z" fill="#004245" stroke="#004245" stroke-width="0.2"/>
<path d="M88.9369 18.9531C88.9369 19.698 88.7188 20.3083 88.2825 20.7871C87.8251 21.2793 87.2181 21.5249 86.4625 21.5249C85.7322 21.5249 85.1515 21.2896 84.7194 20.8169C84.2874 20.3453 84.0713 19.7504 84.0713 19.0332C84.0713 18.2831 84.2937 17.6677 84.7405 17.1899C85.1873 16.7121 85.788 16.4727 86.5436 16.4727C87.274 16.4727 87.8588 16.708 88.3036 17.1796C88.7251 17.6379 88.9369 18.2297 88.9369 18.9531ZM87.7903 18.988C87.7903 18.541 87.6913 18.1578 87.4942 17.8382C87.2634 17.4519 86.9325 17.2587 86.5046 17.2587C86.0599 17.2587 85.7227 17.4519 85.4919 17.8382C85.2938 18.1578 85.1958 18.5472 85.1958 19.0075C85.1958 19.4545 85.2948 19.8377 85.4919 20.1573C85.7311 20.5436 86.0641 20.7368 86.4941 20.7368C86.9157 20.7368 87.2455 20.5405 87.4837 20.147C87.6892 19.8213 87.7903 19.435 87.7903 18.988Z" fill="#004245" stroke="#004245" stroke-width="0.2"/>
<path d="M94.2825 21.4149H93.2908L93.2086 20.857H93.1781C92.8387 21.3019 92.355 21.5249 91.7269 21.5249C91.2579 21.5249 90.8786 21.378 90.593 21.0861C90.3337 20.8211 90.2041 20.4912 90.2041 20.0997C90.2041 19.5079 90.457 19.0568 90.966 18.7445C91.474 18.4321 92.1885 18.279 93.1085 18.2862V18.1958C93.1085 17.5577 92.7649 17.2392 92.0768 17.2392C91.5867 17.2392 91.1547 17.3594 90.7816 17.5978L90.5571 16.8909C91.0187 16.6124 91.5889 16.4727 92.2612 16.4727C93.5596 16.4727 94.2108 17.1405 94.2108 18.4763V20.26C94.2108 20.744 94.2351 21.1293 94.2825 21.4149ZM93.1359 19.7504V19.0034C91.9177 18.9829 91.3085 19.3086 91.3085 19.9795C91.3085 20.2323 91.3781 20.4214 91.5204 20.5477C91.6626 20.6741 91.8439 20.7368 92.0599 20.7368C92.3023 20.7368 92.5289 20.6618 92.7354 20.5128C92.943 20.3628 93.0706 20.1727 93.118 19.9395C93.1296 19.8871 93.1359 19.8233 93.1359 19.7504Z" fill="#004245" stroke="#004245" stroke-width="0.2"/>
<path d="M100.558 21.4138H99.5776L99.526 20.636H99.4954C99.1824 21.2278 98.6492 21.5237 97.8999 21.5237C97.3013 21.5237 96.8028 21.2946 96.4077 20.8363C96.0125 20.3781 95.8154 19.7831 95.8154 19.0526C95.8154 18.2686 96.0293 17.6336 96.4593 17.1486C96.8756 16.6965 97.3856 16.4705 97.9926 16.4705C98.6597 16.4705 99.1266 16.6893 99.3921 17.1281H99.4132V14.3477H100.519V20.1089C100.519 20.5805 100.532 21.0151 100.558 21.4138ZM99.4132 19.3711V18.5635C99.4132 18.4238 99.4027 18.3107 99.3827 18.2244C99.3205 17.9655 99.1866 17.7477 98.9833 17.572C98.7778 17.3963 98.5301 17.3079 98.2445 17.3079C97.8324 17.3079 97.51 17.4672 97.2729 17.7867C97.0379 18.1063 96.9188 18.5142 96.9188 19.0125C96.9188 19.4913 97.0315 19.8797 97.2581 20.1787C97.4973 20.4973 97.8198 20.6565 98.2234 20.6565C98.586 20.6565 98.8758 20.524 99.096 20.2579C99.3089 20.0123 99.4132 19.7164 99.4132 19.3711Z" fill="#004245" stroke="#004245" stroke-width="0.2"/>
<path d="M110.004 18.9531C110.004 19.698 109.786 20.3083 109.349 20.7871C108.892 21.2793 108.287 21.5249 107.529 21.5249C106.801 21.5249 106.22 21.2896 105.786 20.8169C105.354 20.3453 105.138 19.7504 105.138 19.0332C105.138 18.2831 105.361 17.6677 105.807 17.1899C106.254 16.7121 106.855 16.4727 107.613 16.4727C108.341 16.4727 108.928 16.708 109.37 17.1796C109.792 17.6379 110.004 18.2297 110.004 18.9531ZM108.859 18.988C108.859 18.541 108.76 18.1578 108.563 17.8382C108.33 17.4519 108.001 17.2587 107.572 17.2587C107.129 17.2587 106.792 17.4519 106.559 17.8382C106.361 18.1578 106.263 18.5472 106.263 19.0075C106.263 19.4545 106.362 19.8377 106.559 20.1573C106.798 20.5436 107.131 20.7368 107.561 20.7368C107.983 20.7368 108.314 20.5405 108.553 20.147C108.756 19.8213 108.859 19.435 108.859 18.988Z" fill="#004245" stroke="#004245" stroke-width="0.2"/>
<path d="M115.942 21.4141H114.839V18.6398C114.839 17.7849 114.506 17.3575 113.837 17.3575C113.509 17.3575 113.244 17.4746 113.04 17.7099C112.835 17.9452 112.733 18.2227 112.733 18.5402V21.4131H111.628V17.9545C111.628 17.5291 111.615 17.0677 111.589 16.5684H112.558L112.61 17.3257H112.641C112.77 17.0904 112.962 16.8962 113.213 16.741C113.513 16.5602 113.847 16.4688 114.215 16.4688C114.678 16.4688 115.063 16.6146 115.37 16.9075C115.753 17.2661 115.942 17.8014 115.942 18.5124V21.4141Z" fill="#004245" stroke="#004245" stroke-width="0.2"/>
<path d="M123.375 17.3772H122.159V19.7302C122.159 20.3282 122.375 20.6272 122.803 20.6272C123.001 20.6272 123.165 20.6107 123.295 20.5768L123.323 21.3937C123.105 21.4738 122.819 21.5139 122.466 21.5139C122.029 21.5139 121.69 21.3844 121.444 21.1255C121.198 20.8666 121.076 20.4309 121.076 19.8195V17.3772H120.349V16.5706H121.076V15.6828L122.158 15.3643V16.5696H123.374V17.3772H123.375Z" fill="#004245" stroke="#004245" stroke-width="0.2"/>
<path d="M129.222 21.4138H128.116V18.6601C128.116 17.7919 127.783 17.3572 127.116 17.3572C126.604 17.3572 126.254 17.609 126.062 18.1124C126.03 18.2183 126.011 18.3477 126.011 18.4998V21.4128H124.907V14.3477H126.011V17.2668H126.032C126.38 16.7356 126.878 16.4705 127.524 16.4705C127.981 16.4705 128.36 16.6164 128.66 16.9092C129.034 17.274 129.222 17.8165 129.222 18.5337V21.4138Z" fill="#004245" stroke="#004245" stroke-width="0.2"/>
<path d="M135.253 18.7635C135.253 18.9566 135.238 19.119 135.212 19.2515H131.9C131.914 19.7303 132.072 20.0951 132.379 20.3479C132.659 20.5739 133.021 20.6869 133.463 20.6869C133.953 20.6869 134.4 20.6109 134.803 20.4578L134.976 21.2058C134.505 21.4052 133.95 21.5048 133.309 21.5048C132.539 21.5048 131.933 21.2839 131.495 20.8421C131.054 20.4003 130.836 19.8074 130.836 19.0635C130.836 18.3329 131.04 17.7247 131.45 17.2397C131.877 16.7218 132.456 16.4629 133.186 16.4629C133.901 16.4629 134.444 16.7218 134.81 17.2397C135.106 17.6507 135.253 18.1593 135.253 18.7635ZM134.199 18.485C134.207 18.1655 134.135 17.8901 133.985 17.6579C133.793 17.3589 133.501 17.2089 133.106 17.2089C132.746 17.2089 132.452 17.3548 132.227 17.6476C132.044 17.8808 131.935 18.1593 131.9 18.485H134.199Z" fill="#004245" stroke="#004245" stroke-width="0.2"/>
</g>
<defs>
<clipPath id="clip0_663_9659">
<rect width="157" height="58" rx="8" fill="white"/>
</clipPath>
</defs>
</svg>
