<svg width="20" height="20" viewBox="0 0 20 20" fill="none" xmlns="http://www.w3.org/2000/svg">
<path d="M19.2699 19.6821C19.0893 19.5124 18.9087 19.3437 18.7261 19.1759C17.6513 18.1914 6.37317 9.09175 1.33852 0.63417C1.30775 0.58157 1.28294 0.525993 1.25714 0.470417C1.24979 0.451364 1.2376 0.434564 1.22175 0.421681C1.20591 0.408798 1.18698 0.400282 1.16683 0.396976C1.07652 0.38209 1.04277 0.4595 1.00506 0.519046C0.856193 0.749293 0.794662 1.01725 0.724199 1.27926C0.286532 2.92373 0.0999537 4.60492 0.0265131 6.29803C-0.0201324 7.31955 -0.00521878 8.34295 0.0711729 9.36268C0.176372 10.7005 0.397686 12.0155 0.838329 13.2848C1.26012 14.4837 1.8665 15.5674 2.85795 16.3951C3.46878 16.8975 4.19025 17.2475 4.96291 17.4163C5.12666 17.455 5.14651 17.4253 5.09391 17.2605C5.08399 17.2317 5.07407 17.204 5.06315 17.1752C4.53914 15.8228 4.0148 14.4695 3.49013 13.1151C3.33829 12.7181 3.18446 12.3301 3.03262 11.9381C3.09406 11.9757 3.14387 12.0296 3.17652 12.0939C3.65984 12.9464 4.13819 13.8009 4.62647 14.6494C5.14453 15.5486 5.71816 16.406 6.51211 17.0908C7.21088 17.6937 8.03243 18.1373 8.91977 18.3909C9.55168 18.5807 10.2028 18.6996 10.861 18.7452C10.9136 18.7452 10.9761 18.7819 11.0138 18.7303C11.0515 18.6787 10.9999 18.6311 10.9721 18.5854C10.687 18.1362 10.4012 17.6876 10.1147 17.2397C9.35645 16.0593 8.59558 14.88 7.83206 13.7016C7.17639 12.6748 6.51774 11.6473 5.85611 10.6191C5.59609 10.2135 5.3364 9.80796 5.07704 9.40238L5.11079 9.38353C5.13361 9.41032 5.15842 9.43612 5.18026 9.46391C5.83229 10.2817 6.44562 11.1292 7.06589 11.9698C7.85985 13.0377 8.6538 14.1036 9.51921 15.1149C9.98764 15.6617 10.467 16.1996 10.9831 16.7028C11.6893 17.4093 12.4665 18.0412 13.3024 18.5884C13.8522 18.9415 14.4348 19.2406 15.0421 19.4816C15.7297 19.753 16.4539 19.9203 17.1908 19.9778C17.8693 20.0313 18.552 19.9879 19.2183 19.8488C19.264 19.8399 19.3225 19.8429 19.3364 19.7843C19.3503 19.7257 19.2997 19.7099 19.2699 19.6821ZM2.25553 0.541873C2.73191 1.29017 3.27576 1.98488 3.81863 2.67959C5.01551 4.21986 6.20049 5.78097 7.49066 7.24482C7.88763 7.69141 8.32729 8.0735 8.92573 8.21443C11.3254 8.78211 13.3629 7.03839 13.6418 4.68928C13.9098 2.4285 12.3804 0.033743 9.95588 0.024811C7.42979 0.0155482 4.90535 0.0072779 2.38257 0C2.06102 0 2.06796 0.178639 2.16324 0.377127C2.18904 0.431712 2.22179 0.487288 2.25553 0.541873Z" fill="#755AE2"/>
</svg>
